# Created by FreeCAD <http://www.freecadweb.org>
v 1.000000 50.000000 -0.000000
v 0.885456 50.000000 0.464723
v 0.970942 50.000000 0.239316
v 0.970942 50.000000 -0.239316
v 0.885456 50.000000 -0.464723
v 0.748511 50.000000 -0.663123
v 0.568065 50.000000 -0.822984
v 0.354605 50.000000 -0.935016
v -0.354605 50.000000 -0.935016
v -0.120537 50.000000 -0.992709
v -0.568065 50.000000 -0.822984
v -0.748511 50.000000 -0.663123
v -0.885456 50.000000 -0.464723
v -0.970942 50.000000 -0.239316
v -1.000000 50.000000 0.000000
v -0.970942 50.000000 0.239316
v 0.748511 50.000000 0.663123
v -0.885456 50.000000 0.464723
v -0.748511 50.000000 0.663123
v -0.568065 50.000000 0.822984
v -0.354605 50.000000 0.935016
v -0.120537 50.000000 0.992709
v 0.120537 50.000000 0.992709
v 0.354605 50.000000 0.935016
v 0.568065 50.000000 0.822984
v 0.120537 50.000000 -0.992709
v 0.354605 0.000000 -0.935016
v 0.568065 0.000000 -0.822984
v 0.120537 0.000000 -0.992709
v -0.120537 0.000000 -0.992709
v -0.970942 0.000000 0.239316
v -1.000000 0.000000 0.000000
v -0.354605 0.000000 -0.935016
v -0.885456 0.000000 0.464723
v -0.568065 0.000000 -0.822984
v -0.748511 0.000000 0.663123
v -0.748511 0.000000 -0.663123
v -0.568065 0.000000 0.822984
v -0.885456 0.000000 -0.464723
v -0.970942 0.000000 -0.239316
v -0.354605 0.000000 0.935016
v -0.120537 0.000000 0.992709
v 0.120537 0.000000 0.992709
v 0.354605 0.000000 0.935016
v 0.568065 0.000000 0.822984
v 0.748511 0.000000 0.663123
v 0.885456 0.000000 0.464723
v 0.970942 0.000000 0.239316
v 1.000000 0.000000 -0.000000
v 0.970942 0.000000 -0.239316
v 0.885456 0.000000 -0.464723
v 0.748511 0.000000 -0.663123
v 0.709210 0.000000 1.870032
v 0.241073 0.000000 1.985418
v 1.770912 0.000000 0.929446
v 1.497022 0.000000 -1.326245
v 1.136129 0.000000 -1.645968
v 1.941884 0.000000 0.478631
v 1.136129 0.000000 1.645968
v 1.497022 0.000000 1.326245
v -1.136129 0.000000 1.645968
v -1.497022 0.000000 1.326245
v 1.770912 0.000000 -0.929446
v -1.497022 0.000000 -1.326245
v -1.136129 0.000000 -1.645968
v -1.770912 0.000000 -0.929446
v -0.709210 0.000000 -1.870032
v -0.709210 0.000000 1.870032
v -1.941884 0.000000 -0.478631
v -0.241073 0.000000 -1.985418
v -2.000000 0.000000 0.000000
v 0.241073 0.000000 -1.985418
v -1.941884 0.000000 0.478631
v 0.709210 0.000000 -1.870032
v -1.770912 0.000000 0.929446
v 1.941884 0.000000 -0.478631
v -0.241073 0.000000 1.985418
v 2.000000 0.000000 -0.000000
v -0.241073 -1.000000 -1.985418
v 0.241073 -1.000000 -1.985418
v -0.709210 -1.000000 -1.870032
v -1.941884 -1.000000 0.478631
v -2.000000 -1.000000 0.000000
v -1.136129 -1.000000 -1.645968
v -1.770912 -1.000000 0.929446
v -1.497022 -1.000000 -1.326245
v -1.497022 -1.000000 1.326245
v -1.770912 -1.000000 -0.929446
v -1.136129 -1.000000 1.645968
v -1.941884 -1.000000 -0.478631
v -0.709210 -1.000000 1.870032
v -0.241073 -1.000000 1.985418
v 0.241073 -1.000000 1.985418
v 0.709210 -1.000000 1.870032
v 1.136129 -1.000000 1.645968
v 1.497022 -1.000000 1.326245
v 1.770912 -1.000000 0.929446
v 1.941884 -1.000000 0.478631
v 2.000000 -1.000000 -0.000000
v 1.941884 -1.000000 -0.478631
v 1.770912 -1.000000 -0.929446
v 1.497022 -1.000000 -1.326245
v 1.136129 -1.000000 -1.645968
v 0.709210 -1.000000 -1.870032
vn 0.000000 1.000000 0.000000
vn 0.000000 1.000000 -0.000000
vn 0.000000 1.000000 0.000000
vn 0.000000 1.000000 0.000000
vn 0.000000 1.000000 0.000000
vn 0.000000 1.000000 0.000000
vn -0.000000 1.000000 0.000000
vn -0.000000 1.000000 0.000000
vn -0.000000 1.000000 0.000000
vn -0.000000 1.000000 0.000000
vn -0.000000 1.000000 0.000000
vn -0.000000 1.000000 0.000000
vn 0.000000 1.000000 0.000000
vn -0.000000 1.000000 0.000000
vn -0.000000 1.000000 0.000000
vn -0.000000 1.000000 0.000000
vn 0.000000 1.000000 0.000000
vn 0.000000 1.000000 0.000000
vn 0.000000 1.000000 0.000000
vn 0.000000 1.000000 0.000000
vn 0.000000 1.000000 0.000000
vn 0.000000 1.000000 0.000000
vn 0.000000 1.000000 0.000000
vn 0.000000 1.000000 0.000000
vn 0.239316 0.000000 -0.970942
vn 0.464723 0.000000 -0.885456
vn -0.000000 -0.000000 -1.000000
vn 0.239316 0.000000 -0.970942
vn -0.239316 -0.000000 -0.970942
vn 0.000000 0.000000 -1.000000
vn -0.992709 0.000000 0.120537
vn -0.992709 0.000000 0.120537
vn -0.464723 -0.000000 -0.885456
vn -0.239316 0.000000 -0.970942
vn -0.935016 0.000000 0.354605
vn -0.935016 0.000000 0.354605
vn -0.663123 -0.000000 -0.748511
vn -0.464723 0.000000 -0.885456
vn -0.822984 0.000000 0.568065
vn -0.822984 0.000000 0.568065
vn -0.663123 0.000000 -0.748511
vn -0.663123 0.000000 0.748511
vn -0.822984 0.000000 -0.568065
vn -0.663123 0.000000 0.748511
vn -0.935016 -0.000000 -0.354605
vn -0.822984 0.000000 -0.568065
vn -0.992709 -0.000000 -0.120537
vn -0.935016 0.000000 -0.354605
vn -0.464723 0.000000 0.885456
vn -0.464723 0.000000 0.885456
vn -0.992709 0.000000 -0.120537
vn -0.239316 0.000000 0.970942
vn -0.239316 0.000000 0.970942
vn -0.000000 0.000000 1.000000
vn 0.000000 0.000000 1.000000
vn 0.239316 0.000000 0.970942
vn 0.239316 -0.000000 0.970942
vn 0.464723 0.000000 0.885456
vn 0.464723 -0.000000 0.885456
vn 0.663123 0.000000 0.748511
vn 0.663123 -0.000000 0.748511
vn 0.822984 0.000000 0.568065
vn 0.935016 0.000000 0.354605
vn 0.822984 -0.000000 0.568065
vn 0.935016 0.000000 0.354605
vn 0.992709 -0.000000 0.120537
vn 0.992709 0.000000 0.120537
vn 0.992709 0.000000 -0.120537
vn 0.992709 0.000000 -0.120537
vn 0.935016 0.000000 -0.354605
vn 0.822984 0.000000 -0.568065
vn 0.935016 0.000000 -0.354605
vn 0.822984 0.000000 -0.568065
vn 0.663123 0.000000 -0.748511
vn 0.464723 0.000000 -0.885456
vn 0.663123 0.000000 -0.748511
vn -0.000000 1.000000 0.000000
vn 0.000000 1.000000 0.000000
vn -0.000000 1.000000 0.000000
vn 0.000000 1.000000 0.000000
vn 0.000000 1.000000 0.000000
vn 0.000000 1.000000 0.000000
vn -0.000000 1.000000 0.000000
vn -0.000000 1.000000 0.000000
vn 0.000000 1.000000 0.000000
vn 0.000000 1.000000 0.000000
vn 0.000000 1.000000 0.000000
vn 0.000000 1.000000 -0.000000
vn -0.000000 1.000000 0.000000
vn 0.000000 1.000000 0.000000
vn 0.000000 1.000000 0.000000
vn 0.000000 1.000000 0.000000
vn -0.000000 1.000000 0.000000
vn 0.000000 1.000000 0.000000
vn -0.000000 1.000000 0.000000
vn 0.000000 1.000000 0.000000
vn -0.000000 1.000000 0.000000
vn 0.000000 1.000000 0.000000
vn 0.000000 1.000000 -0.000000
vn -0.000000 1.000000 0.000000
vn -0.000000 1.000000 0.000000
vn 0.000000 1.000000 0.000000
vn -0.000000 1.000000 0.000000
vn 0.000000 1.000000 0.000000
vn -0.000000 1.000000 0.000000
vn 0.000000 1.000000 0.000000
vn 0.000000 1.000000 0.000000
vn -0.000000 1.000000 0.000000
vn 0.000000 1.000000 0.000000
vn 0.000000 1.000000 0.000000
vn 0.000000 1.000000 0.000000
vn -0.000000 1.000000 0.000000
vn 0.000000 1.000000 0.000000
vn 0.000000 1.000000 0.000000
vn 0.000000 1.000000 0.000000
vn 0.000000 1.000000 0.000000
vn 0.000000 1.000000 -0.000000
vn -0.000000 1.000000 0.000000
vn 0.000000 1.000000 -0.000000
vn -0.000000 1.000000 0.000000
vn 0.000000 1.000000 0.000000
vn -0.000000 1.000000 0.000000
vn 0.000000 1.000000 0.000000
vn -0.000000 1.000000 0.000000
vn 0.000000 1.000000 0.000000
vn -0.000000 1.000000 0.000000
vn -0.000000 1.000000 0.000000
vn -0.000000 1.000000 0.000000
vn -0.000000 0.000000 -1.000000
vn 0.000000 0.000000 -1.000000
vn -0.239316 0.000000 -0.970942
vn -0.992709 0.000000 0.120537
vn -0.239316 0.000000 -0.970942
vn -0.992709 0.000000 0.120537
vn -0.464723 0.000000 -0.885456
vn -0.935016 0.000000 0.354605
vn -0.464723 0.000000 -0.885456
vn -0.935016 0.000000 0.354605
vn -0.663123 0.000000 -0.748511
vn -0.663123 0.000000 -0.748511
vn -0.822984 0.000000 0.568065
vn -0.822984 0.000000 0.568065
vn -0.822984 0.000000 -0.568065
vn -0.822984 0.000000 -0.568065
vn -0.663123 0.000000 0.748511
vn -0.663123 0.000000 0.748511
vn -0.935016 0.000000 -0.354605
vn -0.935016 0.000000 -0.354605
vn -0.464723 0.000000 0.885456
vn -0.992709 0.000000 -0.120537
vn -0.464723 0.000000 0.885456
vn -0.992709 0.000000 -0.120537
vn -0.239316 0.000000 0.970942
vn -0.239316 0.000000 0.970942
vn -0.000000 0.000000 1.000000
vn 0.000000 0.000000 1.000000
vn 0.239316 0.000000 0.970942
vn 0.239316 -0.000000 0.970942
vn 0.464723 0.000000 0.885456
vn 0.464723 -0.000000 0.885456
vn 0.663123 0.000000 0.748511
vn 0.663123 -0.000000 0.748511
vn 0.822984 -0.000000 0.568065
vn 0.822984 0.000000 0.568065
vn 0.935016 -0.000000 0.354605
vn 0.935016 0.000000 0.354605
vn 0.992709 -0.000000 0.120537
vn 0.992709 0.000000 0.120537
vn 0.992709 0.000000 -0.120537
vn 0.992709 0.000000 -0.120537
vn 0.935016 0.000000 -0.354605
vn 0.935016 0.000000 -0.354605
vn 0.822984 0.000000 -0.568065
vn 0.822984 0.000000 -0.568065
vn 0.663123 0.000000 -0.748511
vn 0.663123 0.000000 -0.748511
vn 0.464723 0.000000 -0.885456
vn 0.464723 0.000000 -0.885456
vn 0.239316 0.000000 -0.970942
vn 0.239316 0.000000 -0.970942
vn 0.000000 -1.000000 0.000000
vn -0.000000 -1.000000 -0.000000
vn -0.000000 -1.000000 0.000000
vn 0.000000 -1.000000 0.000000
vn -0.000000 -1.000000 -0.000000
vn -0.000000 -1.000000 0.000000
vn -0.000000 -1.000000 0.000000
vn 0.000000 -1.000000 0.000000
vn 0.000000 -1.000000 0.000000
vn -0.000000 -1.000000 0.000000
vn -0.000000 -1.000000 0.000000
vn 0.000000 -1.000000 0.000000
vn 0.000000 -1.000000 -0.000000
vn 0.000000 -1.000000 -0.000000
vn 0.000000 -1.000000 0.000000
vn -0.000000 -1.000000 0.000000
vn 0.000000 -1.000000 0.000000
vn 0.000000 -1.000000 0.000000
vn 0.000000 -1.000000 -0.000000
vn 0.000000 -1.000000 -0.000000
vn -0.000000 -1.000000 -0.000000
vn 0.000000 -1.000000 -0.000000
vn 0.000000 -1.000000 0.000000
vn 0.000000 -1.000000 -0.000000
f 1//1 2//1 3//1
f 4//2 2//2 1//2
f 5//3 2//3 4//3
f 6//4 2//4 5//4
f 7//5 2//5 6//5
f 8//6 2//6 7//6
f 9//7 2//7 10//7
f 11//8 2//8 9//8
f 12//9 2//9 11//9
f 13//10 2//10 12//10
f 14//11 2//11 13//11
f 15//12 2//12 14//12
f 10//13 2//13 8//13
f 16//14 17//14 15//14
f 18//15 17//15 16//15
f 19//16 17//16 18//16
f 20//17 17//17 19//17
f 21//18 17//18 20//18
f 22//19 17//19 21//19
f 23//20 17//20 22//20
f 24//21 17//21 23//21
f 25//22 17//22 24//22
f 15//23 17//23 2//23
f 10//24 8//24 26//24
f 8//25 27//25 26//25
f 28//26 27//26 8//26
f 26//27 29//27 10//27
f 27//28 29//28 26//28
f 10//29 30//29 9//29
f 29//30 30//30 10//30
f 15//31 31//31 16//31
f 32//32 31//32 15//32
f 9//33 33//33 11//33
f 30//34 33//34 9//34
f 16//35 34//35 18//35
f 31//36 34//36 16//36
f 11//37 35//37 12//37
f 33//38 35//38 11//38
f 18//39 36//39 19//39
f 34//40 36//40 18//40
f 35//41 37//41 12//41
f 19//42 38//42 20//42
f 12//43 39//43 13//43
f 36//44 38//44 19//44
f 13//45 39//45 14//45
f 37//46 39//46 12//46
f 14//47 40//47 15//47
f 39//48 40//48 14//48
f 20//49 41//49 21//49
f 38//50 41//50 20//50
f 40//51 32//51 15//51
f 21//52 42//52 22//52
f 41//53 42//53 21//53
f 22//54 43//54 23//54
f 42//55 43//55 22//55
f 23//56 44//56 24//56
f 43//57 44//57 23//57
f 24//58 45//58 25//58
f 44//59 45//59 24//59
f 25//60 46//60 17//60
f 45//61 46//61 25//61
f 17//62 47//62 2//62
f 2//63 47//63 3//63
f 46//64 47//64 17//64
f 47//65 48//65 3//65
f 48//66 49//66 3//66
f 3//67 49//67 1//67
f 1//68 49//68 4//68
f 49//69 50//69 4//69
f 4//70 51//70 5//70
f 5//71 51//71 6//71
f 50//72 51//72 4//72
f 51//73 52//73 6//73
f 6//74 28//74 7//74
f 7//75 28//75 8//75
f 52//76 28//76 6//76
f 43//77 53//77 44//77
f 54//78 53//78 43//78
f 46//79 55//79 47//79
f 28//80 56//80 57//80
f 47//81 55//81 58//81
f 52//82 56//82 28//82
f 44//83 59//83 45//83
f 45//84 59//84 46//84
f 53//85 59//85 44//85
f 59//86 60//86 46//86
f 46//87 60//87 55//87
f 36//88 61//88 38//88
f 62//89 61//89 36//89
f 61//90 41//90 38//90
f 52//91 63//91 56//91
f 51//92 63//92 52//92
f 64//93 35//93 65//93
f 37//94 35//94 64//94
f 66//95 39//95 64//95
f 64//96 39//96 37//96
f 65//97 33//97 67//97
f 35//98 33//98 65//98
f 41//99 68//99 42//99
f 69//100 40//100 66//100
f 61//101 68//101 41//101
f 66//102 40//102 39//102
f 67//103 30//103 70//103
f 33//104 30//104 67//104
f 71//105 32//105 69//105
f 69//106 32//106 40//106
f 70//107 29//107 72//107
f 30//108 29//108 70//108
f 73//109 31//109 71//109
f 71//110 31//110 32//110
f 72//111 27//111 74//111
f 29//112 27//112 72//112
f 75//113 34//113 73//113
f 73//114 34//114 31//114
f 50//115 76//115 51//115
f 51//116 76//116 63//116
f 42//117 77//117 43//117
f 68//118 77//118 42//118
f 74//119 28//119 57//119
f 27//120 28//120 74//120
f 49//121 78//121 50//121
f 50//122 78//122 76//122
f 62//123 36//123 75//123
f 77//124 54//124 43//124
f 75//125 36//125 34//125
f 47//126 58//126 48//126
f 48//127 58//127 49//127
f 49//128 58//128 78//128
f 72//129 79//129 70//129
f 80//130 79//130 72//130
f 70//131 81//131 67//131
f 71//132 82//132 73//132
f 79//133 81//133 70//133
f 83//134 82//134 71//134
f 67//135 84//135 65//135
f 73//136 85//136 75//136
f 81//137 84//137 67//137
f 82//138 85//138 73//138
f 65//139 86//139 64//139
f 84//140 86//140 65//140
f 75//141 87//141 62//141
f 85//142 87//142 75//142
f 64//143 88//143 66//143
f 86//144 88//144 64//144
f 62//145 89//145 61//145
f 87//146 89//146 62//146
f 66//147 90//147 69//147
f 88//148 90//148 66//148
f 61//149 91//149 68//149
f 69//150 83//150 71//150
f 89//151 91//151 61//151
f 90//152 83//152 69//152
f 68//153 92//153 77//153
f 91//154 92//154 68//154
f 77//155 93//155 54//155
f 92//156 93//156 77//156
f 54//157 94//157 53//157
f 93//158 94//158 54//158
f 53//159 95//159 59//159
f 94//160 95//160 53//160
f 59//161 96//161 60//161
f 95//162 96//162 59//162
f 96//163 97//163 60//163
f 60//164 97//164 55//164
f 97//165 98//165 55//165
f 55//166 98//166 58//166
f 98//167 99//167 58//167
f 58//168 99//168 78//168
f 99//169 100//169 78//169
f 78//170 100//170 76//170
f 100//171 101//171 76//171
f 76//172 101//172 63//172
f 63//173 102//173 56//173
f 101//174 102//174 63//174
f 56//175 103//175 57//175
f 102//176 103//176 56//176
f 57//177 104//177 74//177
f 103//178 104//178 57//178
f 74//179 80//179 72//179
f 104//180 80//180 74//180
f 80//181 81//181 79//181
f 98//182 97//182 99//182
f 99//183 97//183 100//183
f 81//184 86//184 84//184
f 96//185 95//185 97//185
f 103//186 88//186 104//186
f 104//187 88//187 80//187
f 80//188 88//188 81//188
f 81//189 88//189 86//189
f 101//190 90//190 102//190
f 102//191 90//191 103//191
f 103//192 90//192 88//192
f 92//193 91//193 93//193
f 93//194 91//194 94//194
f 83//195 85//195 82//195
f 100//196 85//196 101//196
f 90//197 85//197 83//197
f 101//198 85//198 90//198
f 89//199 87//199 91//199
f 94//200 87//200 95//200
f 97//201 87//201 100//201
f 95//202 87//202 97//202
f 100//203 87//203 85//203
f 91//204 87//204 94//204
